<svg width="16" height="16" viewBox="0 0 16 16" fill="none" xmlns="http://www.w3.org/2000/svg">
<g clip-path="url(#clip0_723_325)">
<mask id="mask0_723_325" style="mask-type:luminance" maskUnits="userSpaceOnUse" x="0" y="0" width="16" height="16">
<path d="M0 9.53674e-07H16V16H0V9.53674e-07Z" fill="white"/>
</mask>
<g mask="url(#mask0_723_325)">
<path d="M15.3749 8C15.3733 8.65769 15.3659 9.31541 15.3569 9.97307C15.346 10.7665 15.3337 11.5603 15.1347 12.3402C14.9261 13.158 14.5145 13.8633 13.8742 14.3855C13.1995 14.9358 12.3839 15.225 11.5036 15.2785C10.3361 15.3495 9.16814 15.3776 8.00018 15.3748C6.83218 15.3776 5.66418 15.3495 4.49671 15.2785C3.61646 15.225 2.80089 14.9358 2.12614 14.3855C1.48583 13.8633 1.07427 13.158 0.865582 12.3402C0.666582 11.5603 0.654333 10.7665 0.643489 9.97307C0.634489 9.31541 0.62702 8.65769 0.625488 8C0.62702 7.34232 0.634489 6.6846 0.643489 6.02694C0.654333 5.23347 0.666582 4.43966 0.865582 3.65979C1.07427 2.84197 1.48583 2.13666 2.12614 1.61451C2.80089 1.06426 3.61646 0.775036 4.49671 0.721505C5.66418 0.650505 6.83218 0.622443 8.00018 0.625193C9.16814 0.622443 10.3361 0.650505 11.5036 0.721505C12.3839 0.775036 13.1995 1.06426 13.8742 1.61451C14.5145 2.13666 14.9261 2.84197 15.1347 3.65979C15.3337 4.43966 15.346 5.23347 15.3569 6.02694C15.3659 6.6846 15.3733 7.34232 15.3749 8Z" stroke="white" stroke-width="1.2" stroke-miterlimit="10"/>
<path d="M11.25 8C11.25 9.81219 9.78094 11.2812 7.96875 11.2812C6.15656 11.2812 4.6875 9.81219 4.6875 8C4.6875 6.18781 6.15656 4.71875 7.96875 4.71875C9.78094 4.71875 11.25 6.18781 11.25 8Z" stroke="white" stroke-width="1.2" stroke-miterlimit="10"/>
<path d="M13.25 3.78125C13.25 4.299 12.8303 4.71875 12.3125 4.71875C11.7947 4.71875 11.375 4.299 11.375 3.78125C11.375 3.2635 11.7947 2.84375 12.3125 2.84375C12.8303 2.84375 13.25 3.2635 13.25 3.78125Z" fill="white"/>
</g>
</g>
<defs>
<clipPath id="clip0_723_325">
<rect width="16" height="16" fill="white"/>
</clipPath>
</defs>
</svg>
