<svg width="17" height="16" viewBox="0 0 17 16" fill="none" xmlns="http://www.w3.org/2000/svg">
<g clip-path="url(#clip0_723_344)">
<path d="M15.5817 2.75879H4.91797V13.2415H15.5817C16.2435 13.2415 16.78 12.7051 16.78 12.0433V3.95707C16.78 3.29526 16.2436 2.75879 15.5817 2.75879Z" fill="#247924"/>
<path d="M1.97855 2.75879C1.31674 2.75879 0.780273 3.29526 0.780273 3.95707V12.0433C0.780273 12.7051 1.31674 13.2416 1.97855 13.2416H4.91821V2.75879H1.97855Z" fill="#F5F5F5"/>
<path d="M13.6568 9.44363C12.3871 10.5748 10.4433 10.4585 9.31447 9.18653C8.18778 7.91688 8.30182 5.96747 9.57154 4.83641C9.57341 4.83475 9.57522 4.83313 9.5771 4.8315C9.6071 4.80513 9.5781 4.75722 9.54085 4.77172C8.28866 5.25934 7.40088 6.47731 7.40088 7.90341C7.40088 9.76103 8.9031 11.2655 10.7563 11.2655C12.0383 11.2655 13.1492 10.5442 13.7136 9.48522C13.7324 9.44988 13.6883 9.4155 13.6584 9.44219C13.6579 9.44263 13.6573 9.44313 13.6568 9.44363Z" fill="#F5F5F5"/>
<path d="M12.0238 5.39344L12.465 5.88847L13.0763 5.63122C13.1554 5.59791 13.2314 5.6845 13.1881 5.75863L12.8536 6.33128L13.2872 6.8331C13.3433 6.89807 13.2844 6.9971 13.2005 6.97881L12.5526 6.83769L12.2093 7.40507C12.1648 7.4785 12.0524 7.45313 12.0439 7.36769L11.9779 6.70782L11.3322 6.55663C11.2486 6.53703 11.238 6.42235 11.3166 6.38781L11.9238 6.12116L11.8681 5.46038C11.8608 5.37482 11.9667 5.32935 12.0238 5.39344Z" fill="#F5F5F5"/>
</g>
<defs>
<clipPath id="clip0_723_344">
<rect width="16" height="16" fill="white" transform="translate(0.780273)"/>
</clipPath>
</defs>
</svg>
